<mxfile host="65bd71144e" scale="1" border="10">
    <diagram id="STnclhfAwlwUy2GlhDh4" name="Page-1">
        <mxGraphModel dx="669" dy="557" grid="1" gridSize="10" guides="1" tooltips="1" connect="1" arrows="1" fold="1" page="1" pageScale="1" pageWidth="827" pageHeight="1169" background="#ffffff" math="0" shadow="0">
            <root>
                <mxCell id="0"/>
                <mxCell id="1" parent="0"/>
                <mxCell id="4" value="" style="edgeStyle=none;html=1;entryX=0.5;entryY=0;entryDx=0;entryDy=0;" parent="1" source="2" target="8" edge="1">
                    <mxGeometry relative="1" as="geometry">
                        <mxPoint x="290" y="170" as="targetPoint"/>
                    </mxGeometry>
                </mxCell>
                <mxCell id="5" value="Notification to HR" style="edgeLabel;html=1;align=center;verticalAlign=middle;resizable=0;points=[];" parent="4" vertex="1" connectable="0">
                    <mxGeometry x="-0.335" y="1" relative="1" as="geometry">
                        <mxPoint x="-1" y="10" as="offset"/>
                    </mxGeometry>
                </mxCell>
                <mxCell id="2" value="Initiate Request by select users" style="whiteSpace=wrap;html=1;" parent="1" vertex="1">
                    <mxGeometry x="230" y="30" width="120" height="60" as="geometry"/>
                </mxCell>
                <mxCell id="7" value="" style="edgeStyle=none;html=1;entryX=0.5;entryY=0;entryDx=0;entryDy=0;" parent="1" target="17" edge="1">
                    <mxGeometry relative="1" as="geometry">
                        <mxPoint x="290" y="230" as="sourcePoint"/>
                        <mxPoint x="290" y="300" as="targetPoint"/>
                    </mxGeometry>
                </mxCell>
                <mxCell id="10" value="Approve" style="edgeLabel;html=1;align=center;verticalAlign=middle;resizable=0;points=[];" parent="7" vertex="1" connectable="0">
                    <mxGeometry x="0.5733" y="3" relative="1" as="geometry">
                        <mxPoint x="-3" y="-25" as="offset"/>
                    </mxGeometry>
                </mxCell>
                <mxCell id="39" style="edgeStyle=orthogonalEdgeStyle;html=1;entryX=0;entryY=0.5;entryDx=0;entryDy=0;" parent="1" source="8" target="15" edge="1">
                    <mxGeometry relative="1" as="geometry"/>
                </mxCell>
                <mxCell id="41" value="Reject&amp;nbsp;With&lt;br style=&quot;border-color: var(--border-color);&quot;&gt;Comment and&lt;br style=&quot;border-color: var(--border-color);&quot;&gt;Notify Employee" style="edgeLabel;html=1;align=center;verticalAlign=middle;resizable=0;points=[];" parent="39" vertex="1" connectable="0">
                    <mxGeometry x="-0.3054" y="1" relative="1" as="geometry">
                        <mxPoint x="19" y="1" as="offset"/>
                    </mxGeometry>
                </mxCell>
                <mxCell id="8" value="Review by&lt;br&gt;HR" style="rhombus;whiteSpace=wrap;html=1;" parent="1" vertex="1">
                    <mxGeometry x="250" y="150" width="80" height="80" as="geometry"/>
                </mxCell>
                <mxCell id="15" value="End" style="ellipse;html=1;shape=endState;fillColor=#000000;strokeColor=#ff0000;fontColor=#FFFFFF;" parent="1" vertex="1">
                    <mxGeometry x="523.75" y="165" width="52.5" height="50" as="geometry"/>
                </mxCell>
                <mxCell id="18" style="html=1;exitX=1;exitY=0.5;exitDx=0;exitDy=0;entryX=0;entryY=0.5;entryDx=0;entryDy=0;" parent="1" source="17" target="22" edge="1">
                    <mxGeometry relative="1" as="geometry">
                        <mxPoint x="450" y="350" as="targetPoint"/>
                    </mxGeometry>
                </mxCell>
                <mxCell id="19" value="Rejected&lt;br&gt;with comment&lt;br&gt;and Notify&amp;nbsp;" style="edgeLabel;html=1;align=center;verticalAlign=middle;resizable=0;points=[];" parent="18" vertex="1" connectable="0">
                    <mxGeometry x="-0.2317" y="-2" relative="1" as="geometry">
                        <mxPoint x="20" y="-2" as="offset"/>
                    </mxGeometry>
                </mxCell>
                <mxCell id="26" value="" style="html=1;" parent="1" source="17" target="25" edge="1">
                    <mxGeometry relative="1" as="geometry"/>
                </mxCell>
                <mxCell id="27" value="Approve" style="edgeLabel;html=1;align=center;verticalAlign=middle;resizable=0;points=[];" parent="26" vertex="1" connectable="0">
                    <mxGeometry x="-0.5" y="4" relative="1" as="geometry">
                        <mxPoint x="-4" y="15" as="offset"/>
                    </mxGeometry>
                </mxCell>
                <mxCell id="17" value="Review by&lt;br&gt;Finance&lt;br&gt;Dept." style="rhombus;whiteSpace=wrap;html=1;" parent="1" vertex="1">
                    <mxGeometry x="240" y="300" width="100" height="100" as="geometry"/>
                </mxCell>
                <mxCell id="23" style="edgeStyle=orthogonalEdgeStyle;html=1;entryX=0.5;entryY=1;entryDx=0;entryDy=0;" parent="1" source="22" target="15" edge="1">
                    <mxGeometry relative="1" as="geometry">
                        <mxPoint x="380" y="190" as="targetPoint"/>
                    </mxGeometry>
                </mxCell>
                <mxCell id="24" value="Reject&amp;nbsp;With&lt;br&gt;Comment and&lt;br&gt;Notify Employee" style="edgeLabel;html=1;align=center;verticalAlign=middle;resizable=0;points=[];" parent="23" vertex="1" connectable="0">
                    <mxGeometry x="-0.4426" y="-1" relative="1" as="geometry">
                        <mxPoint x="-1" y="-29" as="offset"/>
                    </mxGeometry>
                </mxCell>
                <mxCell id="22" value="Review by HR" style="whiteSpace=wrap;html=1;" parent="1" vertex="1">
                    <mxGeometry x="490" y="335" width="120" height="30" as="geometry"/>
                </mxCell>
                <mxCell id="28" style="edgeStyle=orthogonalEdgeStyle;html=1;entryX=0;entryY=0.5;entryDx=0;entryDy=0;" parent="1" source="25" target="30" edge="1">
                    <mxGeometry relative="1" as="geometry">
                        <mxPoint x="490" y="510" as="targetPoint"/>
                    </mxGeometry>
                </mxCell>
                <mxCell id="29" value="Rejected&lt;br&gt;with Comment&lt;br&gt;and Notify" style="edgeLabel;html=1;align=center;verticalAlign=middle;resizable=0;points=[];" parent="28" vertex="1" connectable="0">
                    <mxGeometry x="-0.6251" y="2" relative="1" as="geometry">
                        <mxPoint x="42" y="2" as="offset"/>
                    </mxGeometry>
                </mxCell>
                <mxCell id="35" value="" style="edgeStyle=orthogonalEdgeStyle;html=1;entryX=0.5;entryY=0;entryDx=0;entryDy=0;" parent="1" source="25" target="36" edge="1">
                    <mxGeometry relative="1" as="geometry">
                        <mxPoint x="290" y="660" as="targetPoint"/>
                    </mxGeometry>
                </mxCell>
                <mxCell id="37" value="Approve" style="edgeLabel;html=1;align=center;verticalAlign=middle;resizable=0;points=[];" parent="35" vertex="1" connectable="0">
                    <mxGeometry x="0.248" y="-1" relative="1" as="geometry">
                        <mxPoint x="1" y="-14" as="offset"/>
                    </mxGeometry>
                </mxCell>
                <mxCell id="25" value="Review by&lt;br&gt;General&lt;br&gt;Manager" style="rhombus;whiteSpace=wrap;html=1;" parent="1" vertex="1">
                    <mxGeometry x="240" y="460" width="100" height="100" as="geometry"/>
                </mxCell>
                <mxCell id="31" style="edgeStyle=orthogonalEdgeStyle;html=1;entryX=0.5;entryY=1;entryDx=0;entryDy=0;" parent="1" source="30" target="22" edge="1">
                    <mxGeometry relative="1" as="geometry"/>
                </mxCell>
                <mxCell id="33" value="Reject" style="edgeLabel;html=1;align=center;verticalAlign=middle;resizable=0;points=[];" parent="31" vertex="1" connectable="0">
                    <mxGeometry x="-0.2544" y="-1" relative="1" as="geometry">
                        <mxPoint as="offset"/>
                    </mxGeometry>
                </mxCell>
                <mxCell id="30" value="Review by Finance&lt;br&gt;Dept" style="whiteSpace=wrap;html=1;" parent="1" vertex="1">
                    <mxGeometry x="490" y="490" width="120" height="40" as="geometry"/>
                </mxCell>
                <mxCell id="36" value="End" style="ellipse;html=1;shape=endState;fillColor=#000000;strokeColor=#ff0000;fontColor=#FFFFFF;" parent="1" vertex="1">
                    <mxGeometry x="267.5" y="630" width="45" height="40" as="geometry"/>
                </mxCell>
            </root>
        </mxGraphModel>
    </diagram>
</mxfile>